<svg width="55" height="55" viewBox="0 0 55 55" xmlns="http://www.w3.org/2000/svg"><g>
<rect height="100%" width="100%" y="0" x="0" fill="#172a55"/>
<path style="display:inline;fill:#b468c0"
 d="m 21,26.13266 v -0.804571 l 4.144059,-3.720199 4.14406,-3.720199 4.935952,-2.501236 4.935953,-2.501237 3.169988,0.307391 L 45.5,13.5 l -0.212691,1 -0.21269,1 -3.78731,0.546126 -3.787309,0.546126 -3,1.905607 -3,1.905608 L 28,23.03559 24.5,25.667714 22.75,26.302472 21,26.93723 Z M 24,13.569551 V 11 h 2.569551 2.569551 L 28.819551,13.25 28.5,15.5 26.25,15.819551 24,16.139102 Z"/>
<path style="fill:#ffcc00"
 d="m 12.04758,40.354067 -0.0339,-3.755554 1.596214,-7.019827 1.596214,-7.019826 1.708076,-4.443832 1.708077,-4.443833 1.11168,-0.371274 1.11168,-0.371275 0.03874,0.419196 c 0.02131,0.230558 0.160017,2.917991 0.308247,5.972073 l 0.269509,5.552877 -0.235393,0.19403 -0.235392,0.194031 v 0.846959 c 0,0.465827 0.01373,0.846959 0.03051,0.846959 0.01678,0 0.294429,-0.0955 0.616991,-0.212212 0.322562,-0.116717 0.595376,-0.201057 0.606252,-0.187423 0.01088,0.01363 0.313478,0.822187 0.672447,1.796785 0.358969,0.974597 0.717693,1.945707 0.797166,2.158022 l 0.144494,0.386026 2.104263,1.12805 2.104264,1.12805 1.888598,-0.597456 1.888599,-0.597455 1.610071,-2.46437 c 0.885539,-1.355403 1.629914,-2.465606 1.654167,-2.467116 0.09852,-0.0061 1.625655,0.97729 1.625488,1.046764 -3.79e-4,0.157091 -1.011808,3.942387 -1.066686,3.992093 -0.03172,0.02873 -1.156362,0.914949 -2.499209,1.969379 l -2.44154,1.917145 -2.295139,-0.0034 -2.295139,-0.0034 -2.98584,-2.518262 c -1.642212,-1.385044 -3.006989,-2.51814 -3.032837,-2.51799 -0.02585,1.5e-4 -0.634193,1.035233 -1.351874,2.300186 l -1.304876,2.299914 -1.58369,3.884758 c -0.871029,2.136617 -1.602608,3.905915 -1.625731,3.931773 -0.02312,0.02586 -0.520966,0.213068 -1.106319,0.416024 l -1.064277,0.36901 z m 6.217848,-13.569432 c -0.655312,-0.656116 -1.214807,-1.192937 -1.243322,-1.192937 -0.02852,0 -0.05185,1.096317 -0.05185,2.43626 v 2.436259 l 1.243322,-1.243322 1.243322,-1.243322 z"/>
</g></svg>
